<svg viewBox="0 0 336 362" xmlns="http://www.w3.org/2000/svg" xml:space="preserve" style="fill-rule:evenodd;clip-rule:evenodd;stroke-linejoin:round;stroke-miterlimit:2"><path d="M330.29 49.271c-1.042-1.734-2.083-2.78-3.125-4.163-2.429-2.775-4.858-5.204-6.937-7.287-4.163-3.817-8.671-7.284-13.184-10.063-4.508-3.467-8.671-6.937-13.183-10.062 0 0-.346-.346-.692-.346-2.429-1.733-4.858-3.471-7.287-4.858-5.9-3.817-11.104-6.592-14.921-8.671-2.775-1.042-4.163-1.738-4.508-1.738 0 .35-.696.35-.696.35-2.775 1.734-2.429 4.508 1.387 9.021 3.817 4.508 7.979 8.671 12.146 12.142l1.733 1.737c_1.388 1.038 2.43 2.425 3.817 3.467 1.042.696 2.083 1.737 3.125 2.775 1.383 1.388 3.121 3.125 4.508 4.513 1.734 1.387 3.471 3.12 5.205 4.508 1.387 1.041 3.125 2.775 4.858 4.858 2.079 2.083 2.775 4.162 2.079 5.9-.346 1.733-.692 3.121-.692 3.467-.345.691-.695 1.041-1.041 1.387-.696 1.042-1.042 2.084-1.734 3.121l-44.412-39.55c-3.121 0-4.508 1.387-4.858 4.858l43.37 43.021c-.345 0-.345.346-.695 1.042-1.038 1.037-1.738 2.425-2.775 4.162-.346.346-.692.692-.692 1.042-.346.692-.692 1.038-1.042 1.388-.346.691-.696 1.387-1.387 2.079l-46.146-41.629c-3.121 0-4.854 1.733-4.854 4.854L282.761 85.7c-.35.346-1.042 1.037-1.392 1.388-1.041 1.387-1.733 2.77-3.121 4.162-.35.692-.695 1.387-1.387 2.425h-.346l-46.492-41.629c-3.47 0-4.858 1.733-4.858 5.204l44.754 44.754-.691.692c-.696 1.041-1.388 1.737-1.738 2.429-1.383 1.737-3.121 3.471-4.508 5.9l-47.529-43.021c-3.121.346-4.513 2.083-4.513 5.204l45.45 45.45-1.737 1.734c-1.038 1.387-2.425 2.775-3.813 4.508l-1.392 1.738-47.179-41.98c-2.775 0-4.508 1.734-4.508 4.509l45.1 45.104c-.35.691-1.042 1.041-1.388 2.083-.345.692-1.041 1.038-1.387 1.388-.696.691-1.042 1.387-1.733 2.079l-1.392 1.387c-.346.35-.692 1.042-1.038 1.388l-47.533-42.329c-2.775 0-4.508 1.391-4.508 4.512l45.446 45.45-1.038 1.042v.346c-1.737 1.737-3.125 3.471-4.512 5.554-.346 0-.692.691-.692.691l-46.492-41.633c-3.121 0-4.512 1.733-4.512 4.508l44.062 44.409c-.346.35-.691.696-1.037 1.387-.696.696-1.392 1.388-2.084 2.083-1.041 1.042-2.083 2.084-2.775 3.121-.345.696-1.041 1.042-1.387 1.738l-46.146-41.633c-3.121 0-4.508 1.733-4.854 4.512l44.408 44.404c-.696.696-1.391 1.392-2.079 2.083-.696 1.042-1.392 1.388-2.083 2.084-.696.692-1.388 1.733-2.429 2.429l-46.146-41.287c-3.121.345-4.509 1.733-4.163 4.858l43.717 43.712c-.35 0-.35.35-.696.696l-1.733 1.733-.696.696c-.346.342-.692.692-.692 1.038-.691.346-1.041 1.042-1.387 1.391-.696.688-1.388 1.038-1.734 1.734l-45.8-40.596c-3.125 0-4.508 1.738-4.508 4.167l43.713 43.366-2.08 2.08-1.737 1.737c-.692.692-1.038 1.388-1.733 1.733-.696.696-1.042 1.042-1.042 1.388l-44.408-39.55c-2.775 0-4.163 1.387-4.163 4.508l41.979 41.984c-.346 0-.346 0-.346.345 0 0-.35 0-.35.346-.345.346-1.037 1.042-1.733 1.734-.346.35-1.042 1.041-1.733 1.733-.346.696-1.042 1.046-1.388 1.737-.35.346-1.041 1.042-1.733 1.734l-43.717-39.204c-2.775 0-4.508 1.737-4.508 4.508l41.629 41.637c-.692.692-1.037 1.042-1.733 1.734-.696.696-1.042 1.387-1.734 1.733 0 .35-.345.696-.695 1.046-.346 0-.346.346-.696.692L101.311 204.7c-2.429 0-3.821 1.383-3.821 3.812l40.25 39.9c-.696.696-1.046 1.042-1.392 1.738-.695.346-1.037 1.037-1.733 1.733-.346.35-1.042 1.038-1.392 1.388-.687.346-1.383 1.041-1.733 1.387l-41.633-37.121c-2.425 0-3.813 1.384-3.813 3.813l39.55 39.204c-.691.35-1.041 1.042-1.387 1.392-.696.346-1.042 1.037-1.734 1.383-.695 1.046-1.737 1.738-2.775 2.779l-39.9-35.737c-2.429.35-3.466 1.387-3.466 3.816l37.466 37.817c-.345 0-1.041.696-1.387 1.042-1.738 1.387-3.121 3.121-4.858 4.858l-38.855-34.696c-2.433.35-3.816 1.738-3.816 3.821l36.429 36.425c-1.392 1.388-3.125 2.775-4.858 4.162l-37.125-33.649c-2.43.345-3.817 1.383-3.471 3.812l35.046 35.042c-2.43 1.733-4.163 3.467-6.246 5.204l-36.084-31.917c-2.429 0-3.47 1.388-3.47 3.817l33.308 32.958c-1.733 1.734-3.817 3.467-5.9 5.204l-33.304-30.183c-2.429.346-3.125 1.388-3.125 3.817l30.533 30.529c-2.429 1.733-4.512 3.471-7.287 5.204l-30.53-27.408c-2.079 0-3.47 1.387-3.47 3.471l28.1 28.1c-.346 0-.346.345-.692.345-.346.346-.692.346-1.042 1.042-1.387.35-2.425 1.042-3.471 1.388l-30.529-26.713c-2.079 0-3.466 1.037-3.466 3.471l23.937 23.588c-3.471-.692-7.287-3.121-11.796-7.284-3.471-3.125-6.591-6.246-9.712-9.021-1.392-1.387-2.775-2.775-4.167-4.162-1.383-1.733-3.121-3.121-4.508-3.817-1.734-.346-3.125-.346-4.509.696-1.391.691-1.737 2.079-1.041 3.812.346 1.046.691 2.084 1.733 4.163.692 1.737 2.429 4.513 4.858 7.979 2.084 3.471 4.509 6.596 6.938 9.717 1.037 1.387 2.083 2.775 3.471 4.162 1.387 1.388 2.429 2.779 3.466 4.163 2.775 2.775 5.205 5.554 7.634 8.329 2.775 2.775 5.55 5.204 8.329 7.633 2.775 1.738 5.896 3.817 9.017 5.55 3.47 2.084 6.941 2.429 10.062 2.429.692 0 1.388-.345 2.429-.345 1.388-.692 2.775-1.042 3.817-2.084.346-.346.696-.691 1.042-.691 10.408-6.942 20.47-14.576 29.491-22.555 11.1-9.02 21.854-18.733 32.263-28.45 11.446-10.754 22.55-21.854 33.308-32.958 6.242-6.592 12.142-12.833 18.388-19.425 2.775-3.125 11.104-11.8 24.979-26.025 12.141-12.837 28.446-30.879 48.916-54.121l.346-.346c_3.125-3.125 5.9-6.245 8.329-9.712 24.288-27.758 41.634-49.617 52.042-64.533 10.408-15.267 15.958-23.938 17.346-25.675.346-.346.346-.692.696-1.042 1.037-2.079 1.733-3.817 2.079-5.55 1.042-4.858 0-10.408-3.121-16.304Z" style="fill:#fff;fill-opacity:0;fill-rule:nonzero;stroke:#000;stroke-width:4.17px" fill="none"/></svg>