<svg viewBox="0 0 353 348" xmlns="http://www.w3.org/2000/svg" xml:space="preserve" style="fill-rule:evenodd;clip-rule:evenodd;stroke-linejoin:round;stroke-miterlimit:2"><path d="M292.541 74.966 275.02 10.082l-64.887 13.05c-7.083-6.712-18.642-7.829-34.304-2.983L65.454 45.132c-1.121.375-2.238.375-3.354.75-.746 0-1.492.371-2.238.371-20.883 5.592-36.546 17.525-47.358 36.542-10.813 18.646-13.05 38.408-7.459 59.292 5.596 20.508 17.525 36.541 36.171 46.983 18.646 10.812 38.034 13.425 58.917 7.829 2.608-.371 5.221-1.117 7.829-2.237 20.138-4.846 45.867 35.8 77.938 122.308 5.591 17.9 13.795 27.596 24.608 28.712h4.104c8.575.375 15.288-1.491 19.763-5.591 5.22-4.475 9.691-11.188 12.679-19.392 1.487-3.729-.375-11.187-5.967-23.121-6.712-16.404-19.767-40.271-39.529-71.591-10.067-16.784-17.525-31.696-22.375-44.746-11.183-30.579-8.2-52.579 9.325-65.259 18.271-13.795 52.579-27.591 104.033-41.016ZM33.012 95.099c_7.088-12.675 17.9-20.879 32.442-24.608 13.796-3.729 27.596-2.238 40.271 5.221 12.679 7.458 20.883 18.27 24.983 32.437 3.729 14.175 1.867 27.967-5.221 40.65-6.337 11.183-15.658 18.642-27.592 23.117-1.862.375-3.354 1.121-4.845 1.491-14.546 4.1-27.971 2.238-40.646-5.22-13.054-7.459-21.254-18.271-24.984-32.071-3.729-14.538-2.237-28.334 5.592-41.017Z"/><path d="M92.675 98.457c-6.338-3.729-13.425-4.85-20.88-2.983-7.087 1.863-12.679 6.338-16.408 12.675-4.104 6.717-4.85 13.8-2.983 20.883 2.237 7.459 6.337 13.055 13.05 16.784 6.341 3.729 13.05 4.846 20.883 2.983.371-.375 1.488-.746 2.238-.746 5.966-2.612 10.812-6.341 14.166-12.304 3.729-6.717 4.475-13.425 2.613-20.883-1.867-7.459-5.967-13.054-12.679-16.409Z" /><path d="M338.037 2.999c-18.271-2.237-35.796-.375-52.95 5.592l16.408 60.779c_17.15-2.979 33.559-10.067 48.846-21.254L338.037 2.999Z" />

<style>
path{
fill:transparent;
stroke: white;
stroke-width:.5rem;
}
</style>

</svg>