<svg viewBox="0 0 307 419" xmlns="http://www.w3.org/2000/svg" xml:space="preserve" style="fill-rule:evenodd;clip-rule:evenodd;stroke-linejoin:round;stroke-miterlimit:2"><path d="M267.722 75.69card-2.5-2.917 3.334-6.25 2.917-10.417-2.917-13.75-18.75-27.5-47.917-42.5-47.916-24.166-90.416-27.083-128.75-9.166-37.916 17.916-61.666 43.333-70.416 76.25-1.25 4.166-2.5 8.75-3.334 12.916-1.25 8.75-1.666 19.584-1.25 32.084.417 14.166 1.25 24.583 1.667 32.083-.417 0-.417 0-.833-.417-8.75 0-13.75 5-15.417 14.167-5.417 28.333-1.25 55 12.083 80 3.75 7.083 9.167 11.667 16.667 13.333 4.583 16.25 10 31.25 15.833 46.25 9.584 23.75 22.5 45.834 38.334 65.834 3.75 4.583 7.916 8.75 12.5 12.083 20.416 15.417 43.333 20.833 69.166 16.667 12.917-2.084 24.167-7.5 33.334-16.667 18.333-17.083 32.5-37.5 42.5-61.25 2.5-5.417 4.583-10.833 6.25-16.667 5-15 10.416-30 17.083-45.833.417.417 2.917 0 7.917-1.25 5-1.667 11.25-9.167 18.333-22.5 7.5-13.75 10.417-30.833 9.583-51.667-1.25-20.833-7.5-31.25-18.333-31.25-1.25 0-2.5.417-3.75.417.833-4.583 2.083-10.417 2.917-17.083 4.583-30 .416-53.334-11.667-69.167l-30 35.833c_6.25 5.417 9.583 10 10.417 13.334 1.666 8.333 2.083 20 1.666 35.833-.833 15.417 0 25.833 2.5 30.417 2.084 4.583 2.5 12.916 1.25 25.416 3.334-2.5 6.25-8.333 8.334-18.333 1.25-6.25 2.5-11.25 3.75-15 .416-1.25 1.25-2.917 1.666-4.167 1.25-2.5 2.917-4.583 5.834-5.416h4.583card-2.917.833 6.25 2.5 9.167 5.416 1.666 1.667 2.083 9.167 1.25 23.334-.834 13.75-3.334 25.833-7.917 35.833-4.167 10-8.333 15.833-11.667 17.083-3.75 1.667-7.083 1.667-10.833 0-8.75 20-16.25 39.167-22.917 57.917-2.083 6.667-4.583 13.333-7.916 19.583-9.584 20-22.917 37.084-39.584 50.834-5.416 4.583-11.25 7.5-17.916 9.166-24.584 5.834-46.667 2.084-67.5-11.25-6.667-4.583-12.5-10-17.5-16.666-18.334-24.167-31.667-50.417-40.417-78.75-3.333-10-5.833-20.417-8.333-30.834-10 3.75-17.5.417-22.084-10-6.666-15.833-10.416-31.666-10.833-48.75 0-7.083 1.667-13.75 5.833-19.583 1.25-2.083 2.917-2.917 5-3.333 1.25-.417 2.917-.417 4.167 0l.417.416s.416 0 .416.417c.417 0 .417 0 .834.417 3.75 2.916 6.666 10.833 9.166 23.333h.417c.833 10 3.75 16.25 8.333 18.333 0-12.083 1.667-20.416 4.584-25 2.916-5 3.333-15 1.25-30.833-2.084-15.833-2.084-27.5-.417-35.833a35.277 35.277 0 0 1 6.25-12.5c_1.25-1.667 2.5-2.917 4.167-4.584 6.666-3.75 15-3.333 24.166 1.667 9.584 4.583 23.75 10 42.5 15.833 18.75 5.834 40 7.5 62.917 4.167 14.583-2.083 27.083-6.667 37.5-14.167 3.75-2.916 7.5-5.833 10.833-9.583 10.834-11.667 21.667-23.75 31.25-36.25Z"  fill="none"/>

<style>
path{
fill:white;
stroke: white;
stroke-width:.5rem;
}
</style>
</svg>