<svg viewBox="0 0 291 443" xmlns="http://www.w3.org/2000/svg" xml:space="preserve" style="fill-rule:evenodd;clip-rule:evenodd;stroke-linejoin:round;stroke-miterlimit:2"><path d="M218.959 32.521c-18.75-19.583-41.667-29.584-68.334-30.417-27.083-.416-52.5 5.417-75.837 17.5-22.917 12.084-42.079 28.333-57.913 49.167-3.75 4.583-7.504 9.583-10.837 15h7.921c-2.505 2.5-5 6.25-6.671 11.25-4.167 10.833-5.829 27.916-4.996 50.417 1.25 31.666 2.912 47.916 4.996 49.166 2.083.834 3.754 3.333 4.166 7.917-1.662 6.666.834 12.916 7.084 17.917v.833l7.5 51.25c_1.254 7.917 2.504 15.833 4.166 23.333 14.584 71.25 42.921 117.5 84.588 138.75 1.25.417 2.083.834 3.333 1.667 6.25 2.917 13.75 4.583 21.667 4.583 1.25 0 2.912 0 5.417-.416h.412card-2.504.416 4.167.416 5.417.416 7.921 0 15.004-1.666 21.666-4.583.838-.833 2.084-1.25 3.334-1.667 41.254-21.25 69.583-67.5 84.587-138.75 2.913-15.416 5.829-32.083 7.913-49.583.421-5.417.837-10.834 1.671-16.25 0-2.917.412-6.25.412-9.583h.421c_6.25-5.001 8.333-11.251 7.079-17.917.421-4.584 1.671-7.083 4.167-7.917 2.083-1.25 4.166-17.5 6.25-49.166 1.671-31.25-12.079-53.334-42.079-65.834 4.166-17.5-5.005-33.333-27.5-47.083ZM117.292 142.104c_19.996 6.25 42.5 7.5 67.912 4.167 21.671-2.917 39.171-11.667 52.084-25.417 10.837 8.333 17.087 15.417 18.337 20.417 2.084 8.75.834 22.5-2.916 40.417-4.167 17.916-2.921 29.583 4.579 34.583 2.504 2.083 4.166 6.666 4.587 13.75.413 4.583 0 10-.833 16.25-.838 8.75-2.921 19.583-6.25 32.083-.417 6.667-1.671 12.083-2.5 17.5-.421 1.25-.833 2.917-1.254 4.167-1.663 6.25-4.167 12.5-7.5 19.167-3.329 6.666-6.663 10.416-10.829 11.25-3.755.416-5.838 5.416-5.838 15-2.917 10.416-5.829 16.666-8.746 17.916-3.333 1.25-6.671-2.5-11.25-11.666-4.166-9.584-9.171-15-15-17.084-6.25-2.083-11.25-2.5-15.837-1.666-4.996.833-8.746.416-11.667-1.25-2.917-1.667-7.496-.417-12.912 4.166-2.084 1.25-3.755 2.084-6.25 2.5-2.084-.416-4.167-1.25-5.838-2.5-5.829-4.583-9.996-5.833-12.912-4.166-3.334 1.666-7.084 2.083-11.667 1.25-4.588-.834-10-.417-15.838 1.666-5.829 2.084-10.829 7.5-14.995 17.084-4.584 9.166-8.334 12.916-11.667 11.666-3.333-1.666-6.25-7.5-8.333-17.916-.421-9.584-2.084-14.584-6.25-15-3.755-.834-7.5-4.584-10.417-11.25-3.333-6.667-5.838-12.917-7.5-19.167-.421-1.25-.833-2.917-1.254-4.167-1.25-5.417-2.084-10.833-2.913-17.5-.421-2.083-.833-4.166-1.254-5.833-2.912-12.084-4.579-24.167-4.996-37.084v-14.166c.417-2.083 1.663-3.75 2.913-4.584 7.083-5.416 8.754-17.083 4.587-34.999-3.754-17.917-5-31.667-2.916-40.417.833-4.583 3.329-9.583 6.25-13.334 1.666-1.666 2.916-3.333 4.579-5 7.504-4.166 16.254-3.749 26.671 1.667 10 5 25.412 10.833 45.833 17.5Zm27.917 219.167c_7.912 0 14.995-.834 22.495-3.333 8.334-2.5 15.838-4.167 22.505-5.001 5.833-.416 9.579 5.417 11.25 18.75.412.834.412 2.084.412 2.917.421 3.333-.412 5.834-1.246 7.917-1.25 1.666-2.5 3.75-4.166 5.417-3.755 4.583-9.584 10-17.917 16.25-15.004 12.083-23.338 7.5-23.75-14.167 9.167-.833 15.417-6.25 18.75-16.667-.838 1.25-5.838 2.5-15 3.75-3.338.417-7.917.417-13.333 0-5.417.417-9.584.417-13.334 0-8.75-1.25-13.75-2.5-14.583-3.75 2.917 10.417 9.167 15.834 18.75 16.667-.838 21.667-8.75 26.25-24.167 14.167-7.921-6.25-13.75-11.667-17.5-16.25-1.671-1.667-2.921-3.751-4.166-5.417-1.25-2.083-1.671-4.584-1.671-7.917.421-.833.421-2.083.833-2.917 1.25-13.333 5.004-19.166 11.254-18.75 6.663.834 14.167 2.501 22.5 5.001 7.079 2.499 14.584 3.333 22.084 3.333Z" />
<style>
path{
fill:transparent;
stroke: white;
stroke-width:.5rem;
}
</style>

</svg>