<svg viewBox="0 0 253 364" xmlns="http://www.w3.org/2000/svg" xml:space="preserve" ><path d="M193.923.263c-.692-.351-1.383-.351-2.079 0-.346.346-1.038 1.387-1.733 2.425-3.813 9.708-8.321 19.762-13.521 30.508-5.2 11.787-10.4 23.921-15.6 35.708-5.204 12.479-10.404 24.963-15.254 37.792-4.509 11.092-9.013 22.187-13.867 33.279l-4.163 7.975c_1.388 3.813 2.43 7.279 3.817 10.746l7.971 21.492.696-1.734c_4.158-9.704 7.625-19.066 10.746-27.733 2.77-8.667 5.545-16.988 8.32-25.309 3.467-10.05 6.588-19.758 10.055-29.812 4.504-15.6 9.012-30.854 13.52-46.108 2.425-9.363 5.2-18.721 7.625-28.429.692-1.038.692-2.425 1.388-3.813.346-1.042.346-2.429.696-3.467.341-.695.341-1.387.691-2.083.346-1.733.692-3.116 1.384-4.85.35-1.733.696-3.467 1.041-5.2 0-.35-.691-1.041-1.733-1.387Z"/><path d="M122.161 159.042c-.346-.346-.346-1.038-.692-1.038-5.546-13.175-12.479-28.775-21.15-46.108l1.387 3.117c-1.037-2.08-2.079-4.159-2.77-6.242-5.55-12.479-11.096-24.958-16.642-37.437-5.546-11.788-10.75-23.23-16.642-35.017-5.2-10.4-10.054-20.455-14.558-29.817-.696-1.383-1.042-2.425-1.388-2.771-1.041-.346-1.387-.346-2.429 0-.691.346-1.387 1.388-1.387 1.734.346 1.733.696 3.466 1.041 5.2.696 1.387 1.388 3.12 1.734 4.504 0 .695.346 1.391.696 2.083.345 1.042.345 2.425 1.037 3.467 0 1.387.696 2.775 1.042 4.158 2.771 9.017 5.891 18.721 8.666 27.737 4.855 15.251 9.705 30.505 14.909 45.759 3.466 10.058 6.933 19.762 10.4 29.471 2.079 5.2 3.812 10.054 5.546 15.254.691 1.037 1.041 2.425 1.387 3.467l1.388 3.812c.691.692 1.037 1.733 1.037 2.425 1.733 4.163 3.467 8.321 5.2 12.483v.692c_1.733 3.813 3.467 7.975 4.854 11.788.346 1.041.696 1.733 1.042 2.425 1.037 2.774 1.733 5.204 3.121 7.979 1.733 5.2 3.812 10.05 5.891 14.558l8.667 18.025h.346l1.042 1.734c.345 1.041.691 2.083 1.037 2.774.696 1.042 1.733 1.734 2.083 2.775 1.384 2.075 3.467 3.467 5.546 4.85 1.388.692 3.121 1.734 4.504 2.425 2.43 1.392 4.509 2.775 6.588 3.817 2.425 1.733 4.508 2.775 6.933 4.508.692.346 1.734 1.042 2.425 1.388l.35.346c_6.242 4.158 11.096 9.012 14.909 14.212 3.812 5.2 8.666 11.442 13.866 18.721 2.429 3.813 4.504 7.625 5.546 11.788 1.388 7.283 1.733 14.216.35 21.841-.35 1.388-.696 3.121-.696 4.854-.696 5.546-.346 11.092 1.038 16.638 2.083 8.321 6.591 14.908 13.175 19.762 2.775 2.084 5.2 3.817 7.629 5.2 5.896 2.775 11.787 4.509 18.029 4.854 1.733-.345 3.117-.345 4.85-.345 1.042 0 3.121-1.042 6.242-2.425 2.079-.696 3.466-1.388 4.85-2.775.696-.692 1.733-1.388 2.429-2.425 2.429-3.467 4.162-7.284 4.854-11.792 1.042-5.2.692-10.746-.692-15.6-1.733-6.933-4.508-12.825-8.666-18.371-4.859-5.55-10.75-9.708-17.334-12.483-.35 0-.695-.346-.695-.346-4.505-1.733-8.667-2.775-12.83-3.817-6.241-1.383-11.441-3.812-15.25-6.933-1.041-.692-2.083-1.383-3.125-2.425-.691-.692-1.037-1.733-1.733-2.425-3.808-5.896-6.237-11.096-7.625-15.95-.346-2.771-1.733-4.85-3.467-6.933-3.466-3.467-6.933-6.238-10.05-9.013-4.858-4.504-9.016-9.012-12.833-14.562-3.467-4.85-6.237-10.05-8.321-15.25-2.425-4.858-4.504-10.059-6.237-15.6-2.775-6.242-5.2-12.83-8.321-19.067l-12.133-25.658Zm1.041 14.908card-2.425.692 4.159 1.733 5.2 3.813 1.038 2.425 1.734 4.158 1.038 6.587-.692 2.083-2.079 3.817-3.813 5.2-2.079 1.042-4.158 1.387-6.587 1.042-2.079-.692-4.159-1.734-5.2-4.159-1.038-1.733-1.384-4.162-1.038-6.245.692-2.425 2.079-4.159 4.159-5.201 2.079-1.383 4.162-1.733 6.241-1.037Zm78.696 133.125c_1.733-2.079 4.158-3.467 6.933-3.812 2.08-.692 4.509-.692 6.588-.692 5.2 0 9.704 1.383 14.212 3.812 4.159 2.425 7.625 5.892 10.4 10.054 2.775 4.159 4.509 8.667 4.855 13.517 0 .696.345 1.042.345 1.734 1.042 4.854.692 9.362-1.383 13.866-2.083 5.204-5.55 8.325-10.4 9.713-4.858 1.383-9.708 1.037-14.908-.696a31.744 31.744 0 0 1-12.134-8.321c-3.125-3.121-5.895-7.279-7.975-11.787-2.083-4.509-2.775-9.013-2.083-14.213.35-4.854 2.429-9.362 5.55-13.175ZM108.99 200.642c-1.734-4.85-3.467-9.705-5.2-14.559-4.163 16.292-8.671 30.854-13.871 43.334-1.383 2.775-2.425 5.891-3.467 8.32 0 0-.346 0-.346-.345-6.237 12.483-11.787 22.187-16.641 29.12-3.121 4.163-6.588 7.28-10.4 10.401-2.425 2.079-4.854 3.466-7.279 4.854-.692.346-1.388.346-1.734.691-4.162 1.734-6.933 3.121-9.016 3.467-2.425.35-4.85.696-7.625 1.733-2.775.696-5.892 1.388-9.013 2.775-3.121 1.388-5.55 2.776-6.933 3.817-.696.692-1.388 1.038-2.084 1.733-3.466 2.771-6.237 5.546-8.666 9.013-2.425 3.812-4.159 7.625-5.546 11.787-1.038 4.504-1.388 8.667-1.038 12.825.346 3.813 1.384 7.28 2.425 10.746 3.121 7.629 8.321 12.138 16.642 14.563.692 0 1.733 0 2.425.35 8.667 1.383 16.296-.35 23.229-4.509 6.588-4.162 11.788-9.362 15.6-15.604 3.121-5.892 4.854-11.437 4.854-15.6 0-4.158.346-7.971 0-11.783 0-5.2 0-10.4.692-15.604.346-5.2 2.429-10.746 5.546-16.988 1.387-2.771 3.121-5.2 5.204-7.971 3.121-4.508 6.588-8.32 10.054-12.133 1.038-1.388 2.425-2.429 3.467-3.817h.346c-1.042 1.042-2.429 2.429-3.813 3.817 8.667-7.975 15.6-14.908 20.8-20.804l4.854-4.854c_1.038-1.042 1.734-2.079 2.425-3.117 1.042-2.083 1.388-3.816 1.734-5.55-1.042-2.079-2.079-4.508-2.775-6.583-1.384-3.467-2.771-6.934-4.159-10.4-.345-1.042-.691-2.084-.691-3.125Zm-72.804 94.646c_1.383-.346 2.77-.346 4.158-.346 2.079.346 4.158 1.041 6.242 1.733 2.079.696 4.158 1.733 5.545 3.121 1.734 1.388 3.121 3.121 3.813 5.2 1.042 2.079 1.387 4.158 1.387 6.242v4.158c-.345 1.733-.691 3.812-.691 5.546-.346 1.733-1.042 3.812-1.388 5.546-.346 1.387-1.041 2.774-1.387 4.162-.692 1.733-1.734 3.467-2.771 5.546-1.388 1.733-2.429 3.121-4.163 4.508-1.041 1.038-2.429 2.079-3.466 2.771-1.042.696-2.429 1.733-3.813 2.079-1.387.696-2.775 1.388-4.162 1.733-1.388.351-2.771.696-4.159 1.042a21.03 21.03 0 0 1-6.587 0c-2.079-.691-3.813-1.387-5.546-2.079-2.083-1.387-3.817-2.775-5.2-4.163-.696-1.037-1.733-2.424-2.429-3.466-.346-.692-1.038-1.733-1.388-2.771-.345-.696-.691-1.733-1.037-2.775-.696-2.079-.696-4.504-1.042-6.587.346-2.425.346-4.85 1.042-6.934.692-2.425 1.387-4.158 2.079-6.237 1.042-1.734 2.079-3.467 3.467-5.546 1.041-1.042 1.733-2.083 2.775-3.121 1.383-1.733 2.771-2.775 4.854-4.163 1.383-1.383 3.467-2.424 5.2-3.116 1.383-.696 2.771-1.042 4.158-1.388 1.388-.346 2.775-.695 4.509-.695Z" style="fill-rule:nonzero"/>
<style>
path{
fill:white;
stroke: white;
stroke-width:.2rem;
}
</style>
</svg>