<svg viewBox="0 0 254 371" xmlns="http://www.w3.org/2000/svg" xml:space="preserve" style="fill-rule:evenodd;clip-rule:evenodd;stroke-linejoin:round;stroke-miterlimit:2"><path d="m239.913 27.78-41.829-9.908v40.363l41.829-9.909V27.78Z" /><path d="M191.476 87.226V14.935c-1.467-8.071-5.871-12.109-12.846-12.109-48.8-3.666-79.992 6.238-92.833 29.725L31.126 59.706v10.637h40.362l11.009 16.883h14.679c0 4.767 1.462 8.804 4.4 12.475.366 0 .733.367 1.1.734 0 .366 0 .733.366.733v30.821h26.055v-31.554h.366c_3.671-3.305 5.504-8.075 5.504-13.209h7.709c_17.246 37.059 48.433 64.946 93.937 83.292 1.467.367 2.934 1.104 4.4 1.837 4.404.367 7.709-.733 9.542-4.037 2.2-3.304.733-6.604-3.671-9.908-35.592-18.713-54.304-42.196-55.408-71.184Z" /><path d="M140.472 142.634c-2.567-2.57-5.505-3.67-9.171-3.67H99.009c-3.304 0-6.242 1.1-9.175 3.67-2.2 2.567-3.304 5.505-3.304 8.805v14.679c-.733 1.833-2.567 2.933-5.138 3.671-1.833 0-4.033.729-5.87 1.466-11.371 4.767-21.65 10.642-30.455 17.98-9.175 7.337-16.512 15.412-23.116 24.954-3.304 4.4-6.238 9.171-8.442 13.941-5.137 9.542-8.442 19.817-10.275 31.192-1.467 11.008-1.467 21.646-.367 32.654 1.467 11.013 4.405 21.65 9.175 32.292a74.605 74.605 0 0 0 8.438 16.146c_5.871 9.175 13.579 16.512 22.754 22.75 2.2 1.104 4.033 2.204 6.238 2.937 4.4 2.2 9.175 2.933 14.308 2.567h103.112c8.071 0 15.409-2.2 22.384-6.604 5.504-3.3 10.271-7.704 15.041-13.209 7.709-9.175 13.95-20.183 18.35-32.658 4.771-12.846 6.609-25.687 6.609-38.896-.371-2.937-.371-6.237-.738-9.541-.733-11.742-3.666-23.484-8.437-34.859-4.042-8.808-8.442-16.879-13.95-23.854-6.604-8.438-13.942-15.775-22.379-22.017-7.705-6.237-17.246-11.37-27.521-15.775-2.571-.737-5.142-1.466-7.704-2.204-2.571-.366-4.042-1.466-4.405-2.933v-14.679c0-3.3-1.466-6.238-3.67-8.805Zm26.787 100.542c-5.137-17.979-15.412-33.025-31.192-45.5 17.25 0 31.925 7.338 44.4 22.379 5.505 6.975 9.909 14.679 13.213 23.121-8.808-3.304-17.613-3.304-26.421 0Zm17.613 57.242c-7.338 5.504-12.109 7.342-13.58 5.871 4.775-14.679 5.505-28.621 1.471-41.096h25.688c-1.471 17.979-5.871 29.721-13.579 35.225Z" />
<style>
path{
fill:transparent;
stroke: white;
stroke-width:.5rem;
}
</style>
</svg>