<svg xmlns="http://www.w3.org/2000/svg" width="682.667" height="682.667" version="1.0" viewBox="0 0 512 512">
  <path d="M358.5 29.2c-1 3.1-5.4 43.8-4.9 45.2.6 1.6 3.6 2.1 16.9 3.1 16.2 1.1 31.3 2.8 32.7 3.6 1.8 1.1-41.8 44.9-44.7 44.9-1.1 0-7.8-2.9-15-6.5-24.8-12.4-49.5-16-77.4-11.5-15.3 2.5-24.2 5.5-38.3 12.7l-11 5.5-10.6-5c-20.8-9.8-39.4-13.8-58.7-12.8-22.4 1.2-38.7 5.1-55 13.1-29.3 14.4-54 42.1-64 71.9-8 24-9.2 51.9-3 76.2 2.9 11.3 10.9 28.7 18.6 40 15.6 23.2 41 41.7 68.5 49.9 14.8 4.4 13.4 2.9 13.4 14.9 0 9.4-.2 10.6-1.9 11.6-1.2.6-11.1 1-25.3 1-16.9 0-23.7.3-24.6 1.2-1.5 1.5-1.7 41.5-.2 43.8.8 1.2 5.2 1.6 26.2 2l25.3.5.5 23.5c.3 12.9.9 24.1 1.3 24.7.6 1 6.1 1.3 21.7 1.3 11.4 0 21.5-.3 22.4-.6 1.4-.5 1.6-3.6 1.6-23.8 0-12.8.5-23.8 1-24.6.8-1.3 4.7-1.5 25-1.6 20 0 24.3-.3 25.1-1.5 1.4-2.2 1.2-42.2-.3-43.7-.9-.9-7.7-1.2-24.4-1.2-19 0-23.5-.3-24.7-1.5-1.1-1-1.5-3.9-1.5-10.6 0-11.1.6-11.9 10.4-14.3 7.7-2 21.8-7.6 28-11.2 2.2-1.3 5.2-2.4 6.6-2.4 1.4 0 6.5 1.8 11.4 4.1 21.7 10.1 38.2 13.4 61.8 12.6 21-.7 34.5-4 52.2-12.6 14.7-7.2 25.3-15 36.7-27 27.7-29.1 39.2-64.8 34.3-106-2-16.5-5.5-27.4-14.2-43.9-4.9-9.3-6.2-12.7-5.5-14 1.6-2.8 41.6-42.2 42.9-42.2.7 0 1.2 1 1.2 2.2 0 4.4 3 41.3 3.5 43.5.5 2.2 1 2.3 9.3 2.3 9.7 0 37-1.8 38.1-2.4.9-.6-1.4-34.3-4.5-64.6-1.4-14-3.1-32.8-3.8-41.8-.7-8.9-1.6-16.5-1.9-16.8-.9-1-20.5-3.2-52.2-5.9-15.9-1.4-30.1-2.7-31.5-3-2.5-.5-33.3-3.5-35.8-3.5-.7 0-1.4.6-1.7 1.2zM299 155.1c26.7 4.2 49.1 20.9 61 45.4 6 12.3 7.4 18.9 7.4 34.5.1 15.1-1.8 23.8-7.5 35.3-10.2 20.3-26.5 34.6-47.9 41.8-15.9 5.4-37.3 5.2-50.2-.3-2.7-1.1-4.8-2.2-4.8-2.4 0-.3 2.5-5.4 5.6-11.5 11.8-23.6 15.9-41.6 15.1-65.9-.8-22.5-6-40.6-17.7-61.4-2.7-4.9-5-9-5-9.2 0-.1 2.6-1.2 5.8-2.4 11.7-4.5 25.8-5.9 38.2-3.9zm-132.7 2c10.7 2.2 13.7 3.3 13.7 5 0 .6-1.4 3.1-3.1 5.5-5.5 8-12 23.1-15.1 35.2-4 15.5-4.9 36.6-2.4 52.3 2.9 17.3 10.2 36.5 20.1 52.6l2.6 4.2-8 2.5c-20.1 6.4-39.1 5.1-58.8-3.9-18.1-8.3-30.5-20.8-39.2-39.7-5.8-12.4-7.5-20.2-7.5-34.3 0-16 3.3-28.3 11.5-42.3 4.4-7.3 19.8-22.8 27.1-27.1 19.3-11.3 37.8-14.4 59.1-10zm57 44.6c6.9 14.8 9.7 30.5 7.7 43.8-2.1 14-9 32.5-12.1 32.5-1.5 0-8.4-15.2-10.4-22.9-3.7-14.3-2.9-31.6 2-46.1 2.8-8.3 6.4-15 8-15 .7 0 2.8 3.5 4.8 7.7z"/>

  <style>
path{
fill:#2F1839;
stroke: white;
stroke-width:0;
}
</style>
</svg>
