<svg viewBox="0 0 345 428" xmlns="http://www.w3.org/2000/svg" xml:space="preserve" ><path d="M239.849 23.011c-13.75-8.333-28.333-12.083-43.333-11.666c_168.599.511 144.433-.739 124.432 7.178c-20.416 7.917-33.333 13.75-38.749 17.083-5.417 3.334-13.75 11.667-24.167 25-10.833 12.921-21.667 32.917-32.083 59.584-11.25 26.666-18.75 55-23.334 85-.833 4.166-2.083 13.333-3.333 27.083-1.25 14.171-.833 28.333 1.667 42.917 2.5 14.583 5 30.416 7.5 47.5 2.916 17.083 11.666 33.333 26.666 48.333-1.666-5-3.333-9.996-5-15.833-.833-4.579-1.666-8.746-2.916-13.334 1.666 2.917 2.916 5.834 4.583 8.755 7.917 13.329 16.667 25.829 27.5 37.079 10.417 10.837 22.917 19.583 36.25 27.083.833 0 1.25.421 2.083.833 1.667.834 3.333 1.671 5 2.917 5.417 3.75 10 8.333 13.75 14.167 1.25 1.254 1.667 2.916 2.084 4.166 3.75-4.995 5-10.833 4.166-17.495-.416-4.167-1.667-8.334-3.333-12.088 18.75 11.25 39.583 15 63.333 11.667 12.083-1.25 22.5-5.417 31.25-12.5 3.75-2.917 7.5-6.25 10.834-9.584h.833card-2.083-.412 4.167-1.25 6.25-1.666l2.083-.829c_16.667-5.838 30.417-13.338 40.834-23.338 11.25-10.417 22.083-22.496 32.499-35.417 12.084-14.162 20-30.416 24.584-48.75 3.75-15 6.25-30.416 7.083-46.25.417-7.083 0-14.166-.417-20.833-1.249-8.333-2.083-16.25-4.166-24.167-.834-2.5-1.25-5-2.084-7.495-.416-.421-.416-.838-.416-.838-2.917-10-5.417-19.996-8.75-30-1.25-3.75-2.5-7.5-3.75-11.667-5-14.583-11.25-28.329-18.334-41.25-8.333-13.333-17.5-26.25-27.499-37.916-11.25-12.917-23.75-23.75-37.084-32.084Zm-15 40.834c-3.75-7.913-10-17.917-17.916-30.829 6.25 5.829 11.249 10.829 15 14.583 4.166 4.167 8.333 11.246 13.749 22.079 4.584 10.833 4.584 26.667 0 48.333 0-10.833-1.249-20.412-2.916-29.583-1.667-8.75-4.583-17.083-7.917-24.583Zm12.5 78.75c0-1.246 0-2.084.417-2.917 10.833 5.417 19.583 17.917 26.667 37.5 3.333 10.004 5.833 21.25 6.25 32.5.416 5.417.416 10.417 0 15.417-.834 17.083-4.167 32.921-10.417 48.333v.417c-.833 1.25-1.25 2.083-1.667 3.75-1.666 3.75-3.75 7.504-5.833 10.833 1.25-.417 2.5-1.667 4.167-2.083 3.749-2.5 7.916-5.413 10.833-8.75-1.25 6.25-3.75 13.754-6.25 21.25-2.917 7.5-6.25 15.833-10.417 24.166a340.859 340.859 0 0 1-8.333 17.917c-3.333 6.25-6.667 11.667-10.417 16.667-10.416 14.166-23.333 22.5-37.916 25 4.583 2.504 9.999 4.166 15.833 4.587-.833.413-1.667 1.246-2.5 1.663-4.583 3.333-10.417 5.416-16.25 6.671-20.417 4.166-38.75 2.495-56.25-5.005 5-1.245 9.167-2.916 12.5-4.166-10.834 2.083-23.334-5-38.333-21.667-15-16.667-24.584-30.417-29.167-40.417-4.583-9.995-7.917-16.245-9.167-19.166 6.667 5.004 13.334 10.416 18.75 15.421-7.5-11.255-13.333-23.755-16.666-36.671-2.917-10.417-4.584-21.663-5-33.334 0-4.583.416-8.75.833-12.916 7.917-9.584 22.5-14.167 43.333-12.913 7.917.413 15.834-.421 23.75-3.337 7.5-2.913 15.417-11.246 24.167-25.417-2.083 21.25-7.083 36.667-14.167 46.25 27.083-12.917 48.334-31.25 63.334-55.417v10.417c-1.25 15.004-5.417 28.333-12.917 40.417 10.417-10.417 18.75-23.75 25.417-39.996 5.833-14.171 10.416-28.754 13.333-44.171.416-.417.416-1.25.416-2.083v-.417c.417-2.5.834-4.583 1.25-7.083 0-.413 0-1.25.417-1.25Z"/>
<style>
path{
fill:black;
<!-- stroke: white;
stroke-width:.5rem; -->
}
</style>
</svg>